<mxfile host="app.diagrams.net" agent="Mozilla/5.0 (Windows NT 10.0; Win64; x64) AppleWebKit/537.36 (KHTML, like Gecko) Chrome/109.0.0.0 Safari/537.36" version="24.8.6">
  <diagram id="CieQH-oFN-AWXrP61c62" name="Trang-1">
    <mxGraphModel dx="1947" dy="494" grid="1" gridSize="10" guides="1" tooltips="1" connect="1" arrows="1" fold="1" page="1" pageScale="1" pageWidth="827" pageHeight="1169" math="0" shadow="0">
      <root>
        <mxCell id="0" />
        <mxCell id="1" parent="0" />
        <mxCell id="VGs4uoNL9eL1TvxT08sY-1" style="edgeStyle=orthogonalEdgeStyle;rounded=0;orthogonalLoop=1;jettySize=auto;html=1;exitX=0.5;exitY=1;exitDx=0;exitDy=0;entryX=0.5;entryY=0;entryDx=0;entryDy=0;" edge="1" parent="1" source="VGs4uoNL9eL1TvxT08sY-2" target="VGs4uoNL9eL1TvxT08sY-4">
          <mxGeometry relative="1" as="geometry" />
        </mxCell>
        <mxCell id="VGs4uoNL9eL1TvxT08sY-2" value="Start" style="ellipse;whiteSpace=wrap;html=1;" vertex="1" parent="1">
          <mxGeometry x="320" y="20" width="120" height="80" as="geometry" />
        </mxCell>
        <mxCell id="VGs4uoNL9eL1TvxT08sY-3" style="edgeStyle=orthogonalEdgeStyle;rounded=0;orthogonalLoop=1;jettySize=auto;html=1;exitX=0.5;exitY=1;exitDx=0;exitDy=0;entryX=0.5;entryY=0;entryDx=0;entryDy=0;" edge="1" parent="1" source="VGs4uoNL9eL1TvxT08sY-4" target="VGs4uoNL9eL1TvxT08sY-6">
          <mxGeometry relative="1" as="geometry" />
        </mxCell>
        <mxCell id="VGs4uoNL9eL1TvxT08sY-4" value="nhập vào số 1, số 2" style="rounded=0;whiteSpace=wrap;html=1;" vertex="1" parent="1">
          <mxGeometry x="320" y="140" width="120" height="60" as="geometry" />
        </mxCell>
        <mxCell id="VGs4uoNL9eL1TvxT08sY-5" style="edgeStyle=orthogonalEdgeStyle;rounded=0;orthogonalLoop=1;jettySize=auto;html=1;exitX=0.5;exitY=1;exitDx=0;exitDy=0;entryX=0.5;entryY=0;entryDx=0;entryDy=0;" edge="1" parent="1" source="VGs4uoNL9eL1TvxT08sY-6">
          <mxGeometry relative="1" as="geometry">
            <mxPoint x="380" y="340" as="targetPoint" />
          </mxGeometry>
        </mxCell>
        <mxCell id="VGs4uoNL9eL1TvxT08sY-6" value="nhập a, b" style="shape=parallelogram;perimeter=parallelogramPerimeter;whiteSpace=wrap;html=1;fixedSize=1;" vertex="1" parent="1">
          <mxGeometry x="320" y="240" width="120" height="60" as="geometry" />
        </mxCell>
        <mxCell id="VGs4uoNL9eL1TvxT08sY-28" value="END" style="ellipse;whiteSpace=wrap;html=1;" vertex="1" parent="1">
          <mxGeometry x="354" y="740" width="120" height="80" as="geometry" />
        </mxCell>
        <mxCell id="VGs4uoNL9eL1TvxT08sY-38" style="edgeStyle=orthogonalEdgeStyle;rounded=0;orthogonalLoop=1;jettySize=auto;html=1;exitX=0.5;exitY=1;exitDx=0;exitDy=0;entryX=0.5;entryY=0;entryDx=0;entryDy=0;" edge="1" parent="1" source="VGs4uoNL9eL1TvxT08sY-29" target="VGs4uoNL9eL1TvxT08sY-33">
          <mxGeometry relative="1" as="geometry" />
        </mxCell>
        <mxCell id="VGs4uoNL9eL1TvxT08sY-29" value="nhập phép tính c: +, -, *, /" style="shape=parallelogram;perimeter=parallelogramPerimeter;whiteSpace=wrap;html=1;fixedSize=1;" vertex="1" parent="1">
          <mxGeometry x="305" y="340" width="190" height="60" as="geometry" />
        </mxCell>
        <mxCell id="VGs4uoNL9eL1TvxT08sY-45" value="Yes" style="edgeStyle=orthogonalEdgeStyle;rounded=0;orthogonalLoop=1;jettySize=auto;html=1;" edge="1" parent="1" source="VGs4uoNL9eL1TvxT08sY-30">
          <mxGeometry relative="1" as="geometry">
            <mxPoint x="280" y="585" as="targetPoint" />
          </mxGeometry>
        </mxCell>
        <mxCell id="VGs4uoNL9eL1TvxT08sY-49" style="edgeStyle=orthogonalEdgeStyle;rounded=0;orthogonalLoop=1;jettySize=auto;html=1;exitX=0;exitY=0.5;exitDx=0;exitDy=0;entryX=1;entryY=0.5;entryDx=0;entryDy=0;" edge="1" parent="1" source="VGs4uoNL9eL1TvxT08sY-30" target="VGs4uoNL9eL1TvxT08sY-32">
          <mxGeometry relative="1" as="geometry" />
        </mxCell>
        <mxCell id="VGs4uoNL9eL1TvxT08sY-30" value="phép = -" style="rhombus;whiteSpace=wrap;html=1;" vertex="1" parent="1">
          <mxGeometry x="240" y="450" width="80" height="80" as="geometry" />
        </mxCell>
        <mxCell id="VGs4uoNL9eL1TvxT08sY-47" value="Yes" style="edgeStyle=orthogonalEdgeStyle;rounded=0;orthogonalLoop=1;jettySize=auto;html=1;exitX=0.5;exitY=1;exitDx=0;exitDy=0;entryX=0.5;entryY=0;entryDx=0;entryDy=0;" edge="1" parent="1" source="VGs4uoNL9eL1TvxT08sY-31">
          <mxGeometry relative="1" as="geometry">
            <mxPoint x="-20" y="585" as="targetPoint" />
          </mxGeometry>
        </mxCell>
        <mxCell id="VGs4uoNL9eL1TvxT08sY-31" value="phép = /" style="rhombus;whiteSpace=wrap;html=1;" vertex="1" parent="1">
          <mxGeometry x="-60" y="450" width="80" height="80" as="geometry" />
        </mxCell>
        <mxCell id="VGs4uoNL9eL1TvxT08sY-46" value="Yes" style="edgeStyle=orthogonalEdgeStyle;rounded=0;orthogonalLoop=1;jettySize=auto;html=1;exitX=0.5;exitY=1;exitDx=0;exitDy=0;entryX=0.5;entryY=0;entryDx=0;entryDy=0;" edge="1" parent="1" source="VGs4uoNL9eL1TvxT08sY-32">
          <mxGeometry relative="1" as="geometry">
            <mxPoint x="130" y="585" as="targetPoint" />
          </mxGeometry>
        </mxCell>
        <mxCell id="VGs4uoNL9eL1TvxT08sY-48" style="edgeStyle=orthogonalEdgeStyle;rounded=0;orthogonalLoop=1;jettySize=auto;html=1;exitX=0;exitY=0.5;exitDx=0;exitDy=0;entryX=1;entryY=0.5;entryDx=0;entryDy=0;" edge="1" parent="1" source="VGs4uoNL9eL1TvxT08sY-32" target="VGs4uoNL9eL1TvxT08sY-31">
          <mxGeometry relative="1" as="geometry" />
        </mxCell>
        <mxCell id="VGs4uoNL9eL1TvxT08sY-32" value="phép = *" style="rhombus;whiteSpace=wrap;html=1;" vertex="1" parent="1">
          <mxGeometry x="90" y="450" width="80" height="80" as="geometry" />
        </mxCell>
        <mxCell id="VGs4uoNL9eL1TvxT08sY-34" style="edgeStyle=orthogonalEdgeStyle;rounded=0;orthogonalLoop=1;jettySize=auto;html=1;exitX=0;exitY=0.5;exitDx=0;exitDy=0;entryX=1;entryY=0.5;entryDx=0;entryDy=0;" edge="1" parent="1" source="VGs4uoNL9eL1TvxT08sY-33" target="VGs4uoNL9eL1TvxT08sY-30">
          <mxGeometry relative="1" as="geometry" />
        </mxCell>
        <mxCell id="VGs4uoNL9eL1TvxT08sY-33" value="phép = +" style="rhombus;whiteSpace=wrap;html=1;" vertex="1" parent="1">
          <mxGeometry x="360" y="450" width="80" height="80" as="geometry" />
        </mxCell>
        <mxCell id="VGs4uoNL9eL1TvxT08sY-43" value="Yes" style="edgeStyle=orthogonalEdgeStyle;rounded=0;orthogonalLoop=1;jettySize=auto;html=1;exitX=0.5;exitY=1;exitDx=0;exitDy=0;entryX=0.364;entryY=0.058;entryDx=0;entryDy=0;entryPerimeter=0;" edge="1" parent="1" source="VGs4uoNL9eL1TvxT08sY-33">
          <mxGeometry relative="1" as="geometry">
            <mxPoint x="400.03999999999996" y="587.98" as="targetPoint" />
          </mxGeometry>
        </mxCell>
        <mxCell id="VGs4uoNL9eL1TvxT08sY-57" style="edgeStyle=orthogonalEdgeStyle;rounded=0;orthogonalLoop=1;jettySize=auto;html=1;exitX=0.5;exitY=1;exitDx=0;exitDy=0;entryX=0.5;entryY=0;entryDx=0;entryDy=0;" edge="1" parent="1" source="VGs4uoNL9eL1TvxT08sY-50" target="VGs4uoNL9eL1TvxT08sY-28">
          <mxGeometry relative="1" as="geometry" />
        </mxCell>
        <mxCell id="VGs4uoNL9eL1TvxT08sY-50" value="a / b" style="shape=parallelogram;perimeter=parallelogramPerimeter;whiteSpace=wrap;html=1;fixedSize=1;" vertex="1" parent="1">
          <mxGeometry x="-80" y="585" width="120" height="60" as="geometry" />
        </mxCell>
        <mxCell id="VGs4uoNL9eL1TvxT08sY-56" style="edgeStyle=orthogonalEdgeStyle;rounded=0;orthogonalLoop=1;jettySize=auto;html=1;exitX=0.5;exitY=1;exitDx=0;exitDy=0;" edge="1" parent="1" source="VGs4uoNL9eL1TvxT08sY-51" target="VGs4uoNL9eL1TvxT08sY-28">
          <mxGeometry relative="1" as="geometry" />
        </mxCell>
        <mxCell id="VGs4uoNL9eL1TvxT08sY-51" value="a * b" style="shape=parallelogram;perimeter=parallelogramPerimeter;whiteSpace=wrap;html=1;fixedSize=1;" vertex="1" parent="1">
          <mxGeometry x="70" y="585" width="120" height="60" as="geometry" />
        </mxCell>
        <mxCell id="VGs4uoNL9eL1TvxT08sY-55" style="edgeStyle=orthogonalEdgeStyle;rounded=0;orthogonalLoop=1;jettySize=auto;html=1;exitX=0.5;exitY=1;exitDx=0;exitDy=0;entryX=0.5;entryY=0;entryDx=0;entryDy=0;" edge="1" parent="1" source="VGs4uoNL9eL1TvxT08sY-52" target="VGs4uoNL9eL1TvxT08sY-28">
          <mxGeometry relative="1" as="geometry" />
        </mxCell>
        <mxCell id="VGs4uoNL9eL1TvxT08sY-52" value="a - b" style="shape=parallelogram;perimeter=parallelogramPerimeter;whiteSpace=wrap;html=1;fixedSize=1;" vertex="1" parent="1">
          <mxGeometry x="220" y="585" width="120" height="60" as="geometry" />
        </mxCell>
        <mxCell id="VGs4uoNL9eL1TvxT08sY-54" style="edgeStyle=orthogonalEdgeStyle;rounded=0;orthogonalLoop=1;jettySize=auto;html=1;exitX=0.5;exitY=1;exitDx=0;exitDy=0;entryX=0.5;entryY=0;entryDx=0;entryDy=0;" edge="1" parent="1" source="VGs4uoNL9eL1TvxT08sY-53" target="VGs4uoNL9eL1TvxT08sY-28">
          <mxGeometry relative="1" as="geometry" />
        </mxCell>
        <mxCell id="VGs4uoNL9eL1TvxT08sY-53" value="a + b" style="shape=parallelogram;perimeter=parallelogramPerimeter;whiteSpace=wrap;html=1;fixedSize=1;" vertex="1" parent="1">
          <mxGeometry x="354" y="585" width="120" height="60" as="geometry" />
        </mxCell>
      </root>
    </mxGraphModel>
  </diagram>
</mxfile>
